<mxfile host="Electron" agent="Mozilla/5.0 (Windows NT 10.0; Win64; x64) AppleWebKit/537.36 (KHTML, like Gecko) draw.io/26.0.9 Chrome/128.0.6613.186 Electron/32.2.5 Safari/537.36" version="26.0.9">
  <diagram name="Page-1" id="uWBLJYAr_4a91FQ689MX">
    <mxGraphModel dx="422" dy="272" grid="1" gridSize="10" guides="1" tooltips="1" connect="1" arrows="1" fold="1" page="1" pageScale="1" pageWidth="570" pageHeight="940" math="0" shadow="0">
      <root>
        <mxCell id="0" />
        <mxCell id="1" parent="0" />
        <mxCell id="N4BlIhDyFJSfhJs6VtOj-7" value="" style="rounded=1;whiteSpace=wrap;html=1;fillColor=#dae8fc;strokeWidth=2;strokeColor=#6c8ebf;" vertex="1" parent="1">
          <mxGeometry x="60" y="230" width="160" height="60" as="geometry" />
        </mxCell>
        <mxCell id="N4BlIhDyFJSfhJs6VtOj-8" value="" style="shape=flexArrow;endArrow=classic;html=1;rounded=0;" edge="1" parent="1">
          <mxGeometry width="50" height="50" relative="1" as="geometry">
            <mxPoint x="240" y="260" as="sourcePoint" />
            <mxPoint x="370" y="260" as="targetPoint" />
          </mxGeometry>
        </mxCell>
        <mxCell id="N4BlIhDyFJSfhJs6VtOj-9" value="&lt;font style=&quot;font-size: 14px;&quot;&gt;A?=B;&lt;/font&gt;" style="text;html=1;align=center;verticalAlign=middle;whiteSpace=wrap;rounded=0;" vertex="1" parent="1">
          <mxGeometry x="85" y="245" width="110" height="30" as="geometry" />
        </mxCell>
        <mxCell id="N4BlIhDyFJSfhJs6VtOj-10" value="" style="rounded=1;whiteSpace=wrap;html=1;fillColor=#dae8fc;strokeWidth=2;strokeColor=#6c8ebf;connectable=0;allowArrows=0;" vertex="1" parent="1">
          <mxGeometry x="390" y="230" width="160" height="60" as="geometry" />
        </mxCell>
        <mxCell id="N4BlIhDyFJSfhJs6VtOj-11" value="&lt;font style=&quot;font-size: 14px;&quot;&gt;A ? =&amp;nbsp; B ;&lt;/font&gt;" style="text;html=1;align=center;verticalAlign=middle;whiteSpace=wrap;rounded=0;connectable=0;allowArrows=0;" vertex="1" parent="1">
          <mxGeometry x="415" y="245" width="110" height="30" as="geometry" />
        </mxCell>
        <mxCell id="N4BlIhDyFJSfhJs6VtOj-12" value="" style="endArrow=none;html=1;rounded=0;fillColor=#f8cecc;strokeColor=#b85450;" edge="1" parent="1">
          <mxGeometry width="50" height="50" relative="1" as="geometry">
            <mxPoint x="440" y="295" as="sourcePoint" />
            <mxPoint x="440" y="225" as="targetPoint" />
          </mxGeometry>
        </mxCell>
        <mxCell id="N4BlIhDyFJSfhJs6VtOj-14" value="" style="endArrow=none;html=1;rounded=0;fillColor=#f8cecc;strokeColor=#b85450;" edge="1" parent="1">
          <mxGeometry width="50" height="50" relative="1" as="geometry">
            <mxPoint x="463" y="295" as="sourcePoint" />
            <mxPoint x="463" y="225" as="targetPoint" />
          </mxGeometry>
        </mxCell>
        <mxCell id="N4BlIhDyFJSfhJs6VtOj-15" value="" style="endArrow=none;html=1;rounded=0;fillColor=#f8cecc;strokeColor=#b85450;" edge="1" parent="1">
          <mxGeometry width="50" height="50" relative="1" as="geometry">
            <mxPoint x="476" y="295" as="sourcePoint" />
            <mxPoint x="476" y="225" as="targetPoint" />
          </mxGeometry>
        </mxCell>
        <mxCell id="N4BlIhDyFJSfhJs6VtOj-16" value="" style="endArrow=none;html=1;rounded=0;fillColor=#f8cecc;strokeColor=#b85450;" edge="1" parent="1">
          <mxGeometry width="50" height="50" relative="1" as="geometry">
            <mxPoint x="493" y="295" as="sourcePoint" />
            <mxPoint x="493" y="225" as="targetPoint" />
          </mxGeometry>
        </mxCell>
        <mxCell id="N4BlIhDyFJSfhJs6VtOj-17" value="" style="endArrow=none;html=1;rounded=0;fillColor=#f8cecc;strokeColor=#b85450;" edge="1" parent="1">
          <mxGeometry width="50" height="50" relative="1" as="geometry">
            <mxPoint x="502" y="295" as="sourcePoint" />
            <mxPoint x="502" y="225" as="targetPoint" />
          </mxGeometry>
        </mxCell>
        <mxCell id="N4BlIhDyFJSfhJs6VtOj-19" value="" style="endArrow=none;html=1;rounded=0;fillColor=#f8cecc;strokeColor=#b85450;" edge="1" parent="1">
          <mxGeometry width="50" height="50" relative="1" as="geometry">
            <mxPoint x="452" y="295" as="sourcePoint" />
            <mxPoint x="452" y="225" as="targetPoint" />
          </mxGeometry>
        </mxCell>
        <mxCell id="N4BlIhDyFJSfhJs6VtOj-20" value="" style="sketch=0;html=1;aspect=fixed;strokeColor=none;shadow=0;align=center;fillColor=#2D9C5E;verticalAlign=top;labelPosition=center;verticalLabelPosition=bottom;shape=mxgraph.gcp2.check" vertex="1" parent="1">
          <mxGeometry x="493" y="213" width="12.5" height="10" as="geometry" />
        </mxCell>
        <mxCell id="N4BlIhDyFJSfhJs6VtOj-21" value="" style="sketch=0;html=1;aspect=fixed;strokeColor=none;shadow=0;align=center;fillColor=#2D9C5E;verticalAlign=top;labelPosition=center;verticalLabelPosition=bottom;shape=mxgraph.gcp2.check" vertex="1" parent="1">
          <mxGeometry x="479" y="213" width="12.5" height="10" as="geometry" />
        </mxCell>
        <mxCell id="N4BlIhDyFJSfhJs6VtOj-22" value="" style="sketch=0;html=1;aspect=fixed;strokeColor=none;shadow=0;align=center;fillColor=#2D9C5E;verticalAlign=top;labelPosition=center;verticalLabelPosition=bottom;shape=mxgraph.gcp2.check" vertex="1" parent="1">
          <mxGeometry x="463.75" y="213" width="12.5" height="10" as="geometry" />
        </mxCell>
        <mxCell id="N4BlIhDyFJSfhJs6VtOj-23" value="" style="sketch=0;html=1;aspect=fixed;strokeColor=none;shadow=0;align=center;fillColor=#2D9C5E;verticalAlign=top;labelPosition=center;verticalLabelPosition=bottom;shape=mxgraph.gcp2.check" vertex="1" parent="1">
          <mxGeometry x="440" y="213" width="12.5" height="10" as="geometry" />
        </mxCell>
        <mxCell id="N4BlIhDyFJSfhJs6VtOj-25" value="Lexical Analysis" style="text;html=1;align=center;verticalAlign=middle;whiteSpace=wrap;rounded=0;" vertex="1" parent="1">
          <mxGeometry x="249" y="280" width="100" height="30" as="geometry" />
        </mxCell>
        <mxCell id="N4BlIhDyFJSfhJs6VtOj-26" value="&amp;nbsp; Tokens =&lt;font style=&quot;font-size: 17px;&quot;&gt; [&lt;/font&gt;&lt;font size=&quot;1&quot; style=&quot;&quot;&gt;A,?,=,B,;&lt;/font&gt;&lt;font style=&quot;font-size: 17px;&quot;&gt;]&lt;/font&gt;" style="text;html=1;align=left;verticalAlign=middle;whiteSpace=wrap;rounded=0;" vertex="1" parent="1">
          <mxGeometry x="397" y="320" width="140" height="30" as="geometry" />
        </mxCell>
        <mxCell id="N4BlIhDyFJSfhJs6VtOj-27" value="" style="shape=mxgraph.mockup.markup.redX;fillColor=#ff0000;html=1;shadow=0;whiteSpace=wrap;strokeColor=none;" vertex="1" parent="1">
          <mxGeometry x="453" y="215" width="9" height="8" as="geometry" />
        </mxCell>
      </root>
    </mxGraphModel>
  </diagram>
</mxfile>
